<svg width="56" height="56" viewBox="0 0 56 56" fill="none" xmlns="http://www.w3.org/2000/svg">
<path d="M24.6867 39.9999C25.2892 39.9999 25.7776 39.5115 25.7776 38.909C25.7776 38.3065 25.2892 37.8181 24.6867 37.8181C24.0842 37.8181 23.5958 38.3065 23.5958 38.909C23.5958 39.5115 24.0842 39.9999 24.6867 39.9999Z" fill="white" stroke="white" stroke-width="2" stroke-linecap="round" stroke-linejoin="round"/>
<path d="M37.2876 39.9999C37.8901 39.9999 38.3785 39.5115 38.3785 38.909C38.3785 38.3065 37.8901 37.8181 37.2876 37.8181C36.6851 37.8181 36.1967 38.3065 36.1967 38.909C36.1967 39.5115 36.6851 39.9999 37.2876 39.9999Z" fill="white" stroke="white" stroke-width="2" stroke-linecap="round" stroke-linejoin="round"/>
<path d="M15.7812 16H16.1194C18.0677 16 19.7325 17.4036 20.0619 19.3238L22.1026 31.2217C22.4319 33.1418 24.0968 34.5455 26.045 34.5455H38.3787" stroke="white" stroke-width="2" stroke-linecap="round" stroke-linejoin="round"/>
<path d="M22.557 30.1817H37.948C38.0621 30.1818 38.1728 30.1381 38.2611 30.0582C38.3494 29.9783 38.4099 29.867 38.4323 29.7433L40.2093 19.9251C40.2237 19.8459 40.2219 19.7642 40.2042 19.6859C40.1865 19.6076 40.1533 19.5345 40.107 19.4721C40.0606 19.4097 40.0023 19.3594 39.9363 19.3249C39.8702 19.2904 39.798 19.2725 39.725 19.2726H20.5825" stroke="white" stroke-width="2" stroke-linecap="round" stroke-linejoin="round"/>
<path d="M34 17C34 12.0294 38.0294 8 43 8C47.9706 8 52 12.0294 52 17C52 21.9706 47.9706 26 43 26C38.0294 26 34 21.9706 34 17Z" fill="#FC5468"/>
</svg>
