<svg width="614" height="49" viewBox="0 0 614 49" fill="none" xmlns="http://www.w3.org/2000/svg">
<path d="M0 24C0 10.7452 10.7452 0 24 0C37.2548 0 48 10.7452 48 24C48 37.2548 37.2548 48 24 48C10.7452 48 0 37.2548 0 24Z" fill="#F6F6F8"/>
<path d="M34.5151 18.0181C33.1454 18.0181 31.8816 17.5643 30.8668 16.7988C29.7029 15.9213 28.8666 14.6342 28.5713 13.1506C28.4982 12.784 28.4588 12.4057 28.4551 12.0181H24.5424V22.7093L24.5377 28.5654C24.5377 30.131 23.5182 31.4585 22.1049 31.9254C21.6948 32.0609 21.2518 32.1251 20.7906 32.0998C20.2018 32.0674 19.6501 31.8898 19.1706 31.6029C18.1501 30.9926 17.4582 29.8854 17.4395 28.6188C17.4099 26.6393 19.0102 25.0254 20.9884 25.0254C21.3788 25.0254 21.7538 25.0891 22.1049 25.2049V22.2827V21.2323C21.7346 21.1774 21.3577 21.1488 20.9767 21.1488C18.8115 21.1488 16.7865 22.0488 15.339 23.6702C14.2449 24.8956 13.5887 26.4588 13.4874 28.098C13.3548 30.2515 14.1427 32.2985 15.6709 33.8088C15.8954 34.0305 16.1312 34.2363 16.3777 34.4262C17.6879 35.4345 19.2896 35.981 20.9767 35.981C21.3577 35.981 21.7346 35.9529 22.1049 35.898C23.6809 35.6646 25.1349 34.9432 26.2824 33.8088C27.6924 32.4152 28.4715 30.5651 28.4799 28.5959L28.4598 19.8509C29.1324 20.3698 29.8679 20.7992 30.6573 21.1324C31.8849 21.6504 33.1866 21.9129 34.5263 21.9124V19.0713V18.0171C34.5273 18.0181 34.516 18.0181 34.5151 18.0181Z" fill="black"/>
<path d="M128 24C128 10.7452 138.745 0 152 0C165.255 0 176 10.7452 176 24C176 37.2548 165.255 48 152 48C138.745 48 128 37.2548 128 24Z" fill="#F6F6F8"/>
<path d="M163.497 18.2052C163.357 17.707 163.092 17.253 162.726 16.8873C162.361 16.5215 161.907 16.2563 161.409 16.1172C159.538 15.6162 152.012 15.6162 152.012 15.6162C152.012 15.6162 144.505 15.6062 142.616 16.1172C142.118 16.2563 141.664 16.5215 141.298 16.8873C140.933 17.253 140.667 17.707 140.528 18.2052C140.174 20.1197 139.999 22.0632 140.006 24.0102C140.001 25.9499 140.175 27.886 140.528 29.7932C140.667 30.2914 140.933 30.7455 141.298 31.1113C141.664 31.477 142.118 31.7421 142.616 31.8812C144.484 32.3833 152.012 32.3833 152.012 32.3833C152.012 32.3833 159.518 32.3833 161.409 31.8812C161.907 31.7421 162.361 31.477 162.726 31.1113C163.092 30.7455 163.357 30.2914 163.497 29.7932C163.842 27.8853 164.01 25.9493 163.997 24.0102C164.011 22.0639 163.844 20.1204 163.497 18.2052ZM149.61 27.6012V20.4082L155.874 24.0102L149.61 27.6012Z" fill="#1C1C33"/>
<path d="M256 24C256 10.7452 266.745 0 280 0C293.255 0 304 10.7452 304 24C304 37.2548 293.255 48 280 48C266.745 48 256 37.2548 256 24Z" fill="#F6F6F8"/>
<g clip-path="url(#clip0_2_281)">
<path d="M291.954 16.5691C291.069 16.9581 290.124 17.2231 289.129 17.3441C290.143 16.7331 290.923 15.7701 291.292 14.6211C290.341 15.1761 289.287 15.5801 288.165 15.8051C287.269 14.8461 285.992 14.2461 284.574 14.2461C281.857 14.2461 279.654 16.4491 279.654 19.1631C279.654 19.5531 279.699 19.9281 279.781 20.2871C275.691 20.0941 272.066 18.1301 269.64 15.1611C269.213 15.8831 268.974 16.7221 268.974 17.6361C268.974 19.3461 269.844 20.8491 271.162 21.7321C270.355 21.7061 269.596 21.4841 268.934 21.1161V21.1771C268.934 23.5621 270.627 25.5511 272.88 26.0041C272.467 26.1151 272.031 26.1751 271.584 26.1751C271.27 26.1751 270.969 26.145 270.668 26.089C271.299 28.0421 273.113 29.4661 275.272 29.5061C273.592 30.825 271.463 31.6111 269.17 31.6111C268.78 31.6111 268.391 31.5881 268 31.5441C270.189 32.9381 272.768 33.753 275.557 33.753C284.611 33.753 289.556 26.257 289.556 19.7671C289.556 19.5581 289.556 19.3471 289.541 19.1371C290.502 18.4481 291.341 17.5771 292.001 16.5891L291.954 16.5691Z" fill="#1C1C33"/>
</g>
<path d="M64 24C64 10.7452 74.7452 0 88 0C101.255 0 112 10.7452 112 24C112 37.2548 101.255 48 88 48C74.7452 48 64 37.2548 64 24Z" fill="#F6F6F8"/>
<g clip-path="url(#clip1_2_281)">
<path d="M88 12C84.74 12 84.333 12.015 83.053 12.072C81.775 12.132 80.905 12.333 80.14 12.63C79.351 12.936 78.681 13.347 78.014 14.014C77.347 14.681 76.935 15.35 76.63 16.14C76.333 16.905 76.131 17.775 76.072 19.053C76.012 20.333 76 20.74 76 24C76 27.26 76.015 27.6671 76.072 28.9471C76.132 30.224 76.333 31.0951 76.63 31.86C76.936 32.648 77.347 33.3191 78.014 33.986C78.681 34.652 79.35 35.0651 80.14 35.37C80.906 35.666 81.776 35.8689 83.053 35.928C84.333 35.988 84.74 36 88 36C91.26 36 91.6671 35.9849 92.9471 35.928C94.224 35.868 95.0951 35.666 95.86 35.37C96.648 35.064 97.3191 34.652 97.986 33.986C98.652 33.3191 99.0651 32.6511 99.37 31.86C99.666 31.0951 99.8689 30.224 99.928 28.9471C99.988 27.6671 100 27.26 100 24C100 20.74 99.9849 20.333 99.928 19.053C99.868 17.776 99.666 16.904 99.37 16.14C99.064 15.351 98.652 14.681 97.986 14.014C97.3191 13.347 96.6511 12.935 95.86 12.63C95.0951 12.333 94.224 12.131 92.9471 12.072C91.6671 12.012 91.26 12 88 12ZM88 14.16C91.2031 14.16 91.5851 14.176 92.85 14.231C94.02 14.286 94.6549 14.48 95.0769 14.646C95.6389 14.863 96.0369 15.123 96.4589 15.542C96.878 15.962 97.138 16.361 97.3549 16.923C97.5189 17.345 97.7149 17.98 97.768 19.15C97.8249 20.416 97.838 20.796 97.838 24C97.838 27.204 97.8229 27.5851 97.764 28.85C97.7029 30.02 97.508 30.6549 97.3431 31.0769C97.1191 31.6389 96.864 32.0369 96.444 32.4589C96.0251 32.878 95.62 33.138 95.064 33.3549C94.644 33.5189 93.9991 33.7149 92.8291 33.768C91.5551 33.8249 91.18 33.838 87.97 33.838C84.759 33.838 84.384 33.8229 83.111 33.764C81.94 33.7029 81.295 33.508 80.875 33.3431C80.306 33.1191 79.915 32.864 79.496 32.444C79.075 32.0251 78.806 31.62 78.596 31.064C78.431 30.644 78.237 29.9991 78.176 28.8291C78.131 27.5691 78.115 27.18 78.115 23.985C78.115 20.789 78.131 20.399 78.176 19.124C78.237 17.954 78.431 17.31 78.596 16.89C78.806 16.32 79.075 15.93 79.496 15.509C79.915 15.09 80.306 14.82 80.875 14.611C81.295 14.445 81.926 14.25 83.096 14.19C84.371 14.145 84.746 14.13 87.955 14.13L88 14.16ZM88 17.838C84.595 17.838 81.838 20.598 81.838 24C81.838 27.4049 84.598 30.162 88 30.162C91.4049 30.162 94.162 27.402 94.162 24C94.162 20.595 91.402 17.838 88 17.838ZM88 28C85.79 28 84 26.21 84 24C84 21.79 85.79 20 88 20C90.21 20 92 21.79 92 24C92 26.21 90.21 28 88 28ZM95.846 17.595C95.846 18.39 95.2 19.035 94.406 19.035C93.6111 19.035 92.966 18.389 92.966 17.595C92.966 16.801 93.612 16.156 94.406 16.156C95.1991 16.155 95.846 16.801 95.846 17.595Z" fill="#1C1C33"/>
</g>
<path d="M192 24C192 10.7452 202.745 0 216 0C229.255 0 240 10.7452 240 24C240 37.2548 229.255 48 216 48C202.745 48 192 37.2548 192 24Z" fill="#F6F6F8"/>
<path fill-rule="evenodd" clip-rule="evenodd" d="M217.714 36V23.9986H221.027L221.466 19.8628H217.714L217.719 17.7929C217.719 16.7142 217.822 16.1362 219.371 16.1362H221.442V12H218.129C214.149 12 212.748 14.0063 212.748 17.3802V19.8633H210.267V23.9991H212.748V36H217.714Z" fill="#1C1C33"/>
<defs>
<clipPath id="clip0_2_281">
<rect width="24" height="24" fill="white" transform="translate(268 12)"/>
</clipPath>
<clipPath id="clip1_2_281">
<rect width="24" height="24" fill="white" transform="translate(76 12)"/>
</clipPath>
</defs>
</svg>
